# xmcd
#
# Track frame offsets:
#	150
#	14035
#	28935
#	49350
#	69067
#	86527
#	106515
#	126472
#	144835
#	164525
#	180845
#	197345
#	217620
#	235020
#	251515
#	278272
#
# Disc length: 3937
#
# Revision: 3
# Processed by: cddbd v1.5.1PL0 Copyright (c) Steve Scherf et al.
# Submitted via: CDmax 1.8
# Normalized: r2:TDELIM( - )
#
DISCID=c60f5f10
DTITLE=Billboard Hottest Hits - Love Story From - 1980~1990 Vol.11
DYEAR=1900
DGENRE=Rock
TTITLE0=Johnny Logan - Hold Me Now
TTITLE1=Shakin' Stevens - Because I Love You
TTITLE2=Bertie Higgins - Casablanca
TTITLE3=Celine Dion and Clive Griffin - When I Fall In Iove
TTITLE4=Toto - I'll Be Over You
TTITLE5=Kenny Loggins - Forever
TTITLE6=Reo Speedwagon - In My Dream
TTITLE7=Loverboy - Heaven In Your Eyes
TTITLE8=ELO - Midnight Blue
TTITLE9=Dan Hill - Never Thought
TTITLE10=Steve Perry - Foolish Heart
TTITLE11=Rick Price - Heaven Knows
TTITLE12=Johnny Logan - I'm Not In Love
TTITLE13=Earth,Wind&Fire - After The Love Has Gone
TTITLE14=Spandau Ballet - Through The Barricades
TTITLE15=Bangles - If She Knew What She Wants
EXTD=
EXTT0=
EXTT1=
EXTT2=
EXTT3=
EXTT4=
EXTT5=
EXTT6=
EXTT7=
EXTT8=
EXTT9=
EXTT10=
EXTT11=
EXTT12=
EXTT13=
EXTT14=
EXTT15=
PLAYORDER=
